<?xml version="1.0" encoding="utf-8"?>
<svg version="1.1" xmlns:xlink="http://www.w3.org/1999/xlink" width="14px" height="14px" xmlns="http://www.w3.org/2000/svg">
  <g transform="matrix(1 0 0 1 -28 -374 )">
    <path d="M 7 13.45538328125  C 10.5595703125 13.45538328125  13.45538328125 10.5595703125  13.45538328125 7  C 13.45538328125 3.4404296875  10.5595703125 0.54461671875  7 0.54461671875  C 3.4404296875 0.54461671875  0.544616718749998 3.4404296875  0.544616718749998 7  C 0.544616718749998 10.5595703125  3.4404296875 13.45538328125  7 13.45538328125  Z M 7 11.89288328125  C 4.3019409375 11.89288328125  2.10711671875 9.6980590625  2.10711671875 7  C 2.10711671875 4.3019409375  4.3019409375 2.10711671875  7 2.10711671875  C 9.6980590625 2.10711671875  11.89288328125 4.30224609375  11.89288328125 7  C 11.89288328125 9.69775390625  9.6980590625 11.89288328125  7 11.89288328125  Z " fill-rule="nonzero" fill="#ffffff" stroke="none" transform="matrix(1 0 0 1 28 374 )" />
  </g>
</svg>