<?xml version="1.0" encoding="utf-8"?>
<svg version="1.1" xmlns:xlink="http://www.w3.org/1999/xlink" width="41px" height="39px" xmlns="http://www.w3.org/2000/svg">
  <g transform="matrix(1 0 0 1 -14 -288 )">
    <path d="M 41 0.683333333333333  C 41 0.305965147916667  40.6940348520833 0  40.3166666666667 0  L 33.4833333333333 0  C 33.1059651479167 0  32.8 0.305965147916667  32 0.683333333333333  L 32 11.3337239583333  L 30.0666666666667 14.0670572916667  L 30.0666666666667 11.6166666666667  C 30.0666666666667 11.23929848125  29.76070151875 10.9333333333333  29.3833333333333 10.9333333333333  L 22.55 10.9333333333333  C 22.1726318145833 10.9333333333333  21.8666666666667 11.23929848125  21.8666666666667 11.6166666666667  L 21.8666666666667 16.3192546  L 19.1333333333333 14.9525879333333  L 19.1333333333333 6.15  C 19.1333333333333 5.77263181458333  18.8273681854167 5.46666666666667  18.45 5.46666666666667  L 11.6166666666667 5.46666666666667  C 11.23929848125 5.46666666666667  10.9333333333333 5.77263181458333  11 6.15  L 11 16.800390625  L 8.2 19.5337239583333  L 8.2 17.0833333333333  C 8.2 16.7059651479167  7.89403485208333 16.4  7.51666666666667 16.4  L 0.683333333333333 16.4  C 0.305965147916667 16.4  0 16.7059651479167  0 17.0833333333333  L 0 37.5833333333333  C 0 37.96070151875  0.305965147916667 38.2666666666667  0.683333333333333 38.2666666666667  L 7.51666666666667 38.2666666666667  C 7.89403485208333 38.2666666666667  8.2 37.96070151875  9 37.5833333333333  L 9 21.4662760416667  L 11 18.7329427083333  L 11 37.5833333333333  C 10.9333333333333 37.96070151875  11.23929848125 38.2666666666667  11.6166666666667 38.2666666666667  L 18.45 38.2666666666667  C 18.8273681854167 38.2666666666667  19.1333333333333 37.96070151875  19.1333333333333 37.5833333333333  L 19.1333333333333 16.4807454  L 21.8666666666667 17.8474120666667  L 21.8666666666667 37.5833333333333  C 21.8666666666667 37.96070151875  22.1726318145833 38.2666666666667  22.55 38.2666666666667  L 29.3833333333333 38.2666666666667  C 29.76070151875 38.2666666666667  30.0666666666667 37.96070151875  30 37.5833333333333  L 30 15.999609375  L 32 13.2662760416667  L 32 37.5833333333333  C 32.8 37.96070151875  33.1059651479167 38.2666666666667  33.4833333333333 38.2666666666667  L 40.3166666666667 38.2666666666667  C 40.6940348520833 38.2666666666667  41 37.96070151875  41 37.5833333333333  L 41 0.683333333333333  Z M 6.83333333333333 17.7666666666667  L 6.83333333333333 20.900390625  L 4.44934084166667 23.2847167541667  C 4.33556310833333 23.2520182291667  4.21811519166667 23.23500160625  4.1 23.2333333333333  C 3.34526362916667 23.2333333333333  2.73333333333333 23.8452636291667  2.73333333333333 24.6  C 2.73333333333333 25.3547363708333  3.34526362916667 25.9666666666667  4.1 25.9666666666667  C 4.85473637083333 25.9666666666667  5.46666666666667 25.3547363708333  5.46666666666667 24.6  C 5.46499839375 24.4818848083333  5.44798177083333 24.3644368916667  5.41528324583333 24.2506591583333  L 7 22.8329427083333  L 7 36.9  L 2 36.9  L 2 17.7666666666667  L 6.83333333333333 17.7666666666667  Z M 18 15.7974120666667  L 18 36.9  L 13 36.9  L 13 17.3662760416667  L 14.6839924916667 14.9819499125  C 14.797770225 15.0146484375  14.9152181416667 15.0316650604167  15.0333333333333 15.0333333333333  C 15.3009276916667 15.0336669708333  15.5621825958333 14.95458984375  15.7850667104167 14.8064453125  L 18 15.7974120666667  Z M 17.7666666666667 6.83333333333333  L 17.7666666666667 14.2692546  L 16.3909911895833 13.581917275  C 16.31591796875 12.8705566833333  15.7046549479167 12.3377034291667  14.9896240020833 12.35972495625  C 14.2745931416667 12.3820801208333  13.69769691875 12.9519693583333  13.6666666666667 13.6666666666667  C 13.6683349395833 13.7847818583333  13.6853515625 13.902229775  13.7180500875 14.0160075083333  L 12.3 15.4337239583333  L 12.3 6.83333333333333  L 17.7666666666667 6.83333333333333  Z M 28 17.3662760416667  L 28 36.9  L 23 36.9  L 23 18.5307454  L 24.6090088104167 19.218082725  C 24.68408203125 19.9294433166667  25.2953450520833 20.4622965708333  26.0103759979167 20.44027504375  C 26.7254068583333 20.4179198791667  27.30230308125 19.8480306416667  27.3333333333333 19.1333333333333  C 27.3316650604167 19.0152181416667  27.3146484375 18.897770225  27.2819499125 18.7839924916667  L 28 17.3662760416667  Z M 28.7 12.3  L 28.7 15.4337239583333  L 26.3160075083333 17.8180500875  C 26.202229775 17.7853515625  26.0847818583333 17.7683349395833  25.9666666666667 17.7666666666667  C 25.6990723083333 17.7663330291667  25.4378174041667 17.84541015625  25.2149332895833 17.9935546875  L 23.2333333333333 17.0025879333333  L 23.2333333333333 12.3  L 28.7 12.3  Z M 39 1.36666666666667  L 39 36.9  L 34 36.9  L 34 11.899609375  L 36.5506591583333 9.51528324583333  C 36.6644368916667 9.54798177083333  36.7818848083333 9.56499839375  36.9 9.56666666666667  C 37.6547363708333 9.56666666666667  38.2666666666667 8.95473637083333  38.2666666666667 8.2  C 38.2666666666667 7.44526362916667  37.6547363708333 6.83333333333333  36.9 6.83333333333333  C 36.1452636291667 6.83333333333333  35.5333333333333 7.44526362916667  35.5333333333333 8.2  C 35.53500160625 8.31811519166667  35.5520182291667 8.43556310833333  35.5847167541667 8.54934084166667  L 34.1666666666667 9.96705729166667  L 34.1666666666667 1.36666666666667  L 39 1.36666666666667  Z " fill-rule="nonzero" fill="#ffffff" stroke="none" transform="matrix(1 0 0 1 14 288 )" />
  </g>
</svg>