<?xml version="1.0" encoding="utf-8"?>
<svg version="1.1" xmlns:xlink="http://www.w3.org/1999/xlink" width="13px" height="13px" xmlns="http://www.w3.org/2000/svg">
  <g transform="matrix(1 0 0 1 -43 -228 )">
    <path d="M 11.97579296875 6.19553255208334  C 12.1706840052977 5.9957509653174  12.2375240001883 5.70377518118528  12.14895703125 5.439103515625  C 12.0603486349131 5.17437172224285  11.8311364122544 4.98142088758395  11.555171875 4.93925520833333  L 8.34549218750001 4.4484375  L 6.90338932291667 1.376171875  C 6.78069393035159 1.11475645983815  6.51794370633731 0.947826786029012  6.22916666666667 0.947826786029012  C 5.94038962699603 0.947826786029012  5.67763940298175 1.11475645983815  5.55494401041667 1.376171875  L 4.11284114583334 4.4484375  L 0.903161458333337 4.9388828125  C 0.539295059542843 4.99426880404457  0.270447439104571 5.30713580802168  0.270447439104571 5.67519336361338  C 0.270447439104571 5.86974321997147  0.346571953973324 6.05657049120695  0.482540364583338 6.19571875  L 2.82677213541667 8.59841666666666  L 2.27190234375001 11.9999733072917  C 2.26546256413523 12.0395349658028  2.26222691165552 12.079551920032  2.26222691165552 12.1196342800628  C 2.26222691165552 12.5309713593639  2.59568149902112 12.8644259467295  3.00701857832218 12.8644259467295  C 3.13304301633113 12.8644259467295  3.25700667322683 12.8324475361948  3.3673046875 12.771484375  L 6.22916666666667 11.1896399739583  L 9.09102864583334 12.771484375  C 9.20133483348268 12.8324594188755  9.32531075305716 12.864444374076  9.45134809279959 12.864444374076  C 9.86268517210065 12.864444374076  10.1961397594663 12.5309897867104  10.1961397594663 12.1196527074093  C 10.1961397594663 12.0795011268662  10.1928929217306 12.0394152919353  10.1864309895833 11.999787109375  L 9.63156119791667 8.59823046875  L 11.97579296875 6.19553255208334  Z M 9.896986328125 6.19283268229167  L 8.30285286458333 7.827091796875  C 8.13774682794289 7.99628981437337  8.06277243617862 8.23382388966343  8.100828125 8.46714713541666  L 8.46931380208333 10.7259140625  L 6.58945963541666 9.68683658854167  C 6.36524916725316 9.56290943767202  6.09308416608018 9.56290943767202  5.86887369791667 9.68683658854167  L 3.98901953125 10.7259140625  L 4.35750520833333 8.46714713541667  C 4.39556089715472 8.23382388966344  4.32058650539044 7.99628981437338  4.15548046875 7.827091796875  L 2.56106770833334 6.19283268229167  L 4.7302734375 5.86130729166667  C 4.97584415541858 5.82383401284913  5.18656694344052 5.66639423634692  5.29212565104167 5.44152408854167  L 6.22916666666667 3.44557552083333  L 7.16592838541666 5.44152408854167  C 7.27148709301783 5.66639423634692  7.48220988103976 5.82383401284913  7.72778059895833 5.86130729166667  L 9.896986328125 6.19283268229167  Z " fill-rule="nonzero" fill="#ffffff" stroke="none" transform="matrix(1 0 0 1 43 228 )" />
  </g>
</svg>