<?xml version="1.0" encoding="utf-8"?>
<svg version="1.1" xmlns:xlink="http://www.w3.org/1999/xlink" width="35px" height="27px" xmlns="http://www.w3.org/2000/svg">
  <g transform="matrix(1 0 0 1 -15 -150 )">
    <path d="M 33.5895638020833 1.22177220394737  C 31.6884212239583 7.70534703947369  26.4667220052083 12.7433338815789  20.0020442708333 14.69053125  C 19.5758235677083 12.941015625  18.7650130208333 11.2867993421053  17.6033138020833 9.87211924342105  L 12.7615787760417 3.97450657894737  L 8.11081705729167 3.97450657894737  L 3.26908203125 9.87147532894737  C 1.49944010416667 12.0273009868421  0.524088541666665 14.7356052631579  0.524088541666665 17.4967105263158  C 0.524088541666665 20.9532434210526  2.426552734375 24.1438396381579  5.49600260416667 25.8675986842105  L 15.0618489583333 25.8675986842105  L 15.0618489583333 20.7162828947368  L 19.772744140625 20.7162828947368  C 20.147421875 19.6847319078947  20.3483072916667 18.60553125  20.3483072916667 17.4967105263158  C 20.3483072916667 16.9822228618421  20.3033723958333 16.4709547697368  20.236630859375 15.96290625  C 27.1916276041667 13.9223412828947  32.821044921875 8.53148930921053  34.86095703125 1.57592516447369  L 33.5895638020833 1.22177220394737  Z M 13.740234375 12.3453947368421  L 13.740234375 14.2771381578947  L 12.4186197916667 14.2771381578947  L 12.4186197916667 12.3453947368421  C 12.4186197916667 11.2803601973684  11.5291731770833 10.4136513157895  10.4361979166667 10.4136513157895  L 8.45377604166667 10.4136513157895  L 8.45377604166667 12.3453947368421  C 8.45377604166667 13.4104292763158  9.34322265625 14.2771381578947  10.4361979166667 14.2771381578947  C 12.2580436197917 14.2771381578947  13.740234375 15.7214383223684  13.740234375 17.4967105263158  L 13.740234375 20.7162828947368  L 11.0970052083333 20.7162828947368  L 11.0970052083333 22.0041118421053  L 9.775390625 22.0041118421053  L 9.775390625 20.6512475328947  C 8.26941080729167 20.3518273026316  7.13216145833333 19.0517639802632  7.13216145833333 17.4967105263158  L 7.13216145833333 15.5649671052632  L 8.45377604166667 15.5649671052632  L 8.45377604166667 17.4967105263158  C 8.45377604166667 18.5617450657895  9.34322265625 19.4284539473684  10.4361979166667 19.4284539473684  L 12.4186197916667 19.4284539473684  L 12.4186197916667 17.4967105263158  C 12.4186197916667 16.4316759868421  11.5291731770833 15.5649671052632  10.4361979166667 15.5649671052632  C 8.61435221354167 15.5649671052632  7.13216145833333 14.1206669407895  7.13216145833333 12.3453947368421  L 7.13216145833333 9.12582236842105  L 9.775390625 9.12582236842105  L 9.775390625 7.83799342105263  L 11.0970052083333 7.83799342105263  L 11.0970052083333 9.19085773026316  C 12.6029850260417 9.49027796052632  13.740234375 10.7903412828947  13.740234375 12.3453947368421  Z " fill-rule="nonzero" fill="#ffffff" stroke="none" transform="matrix(1 0 0 1 15 150 )" />
  </g>
</svg>