<?xml version="1.0" encoding="utf-8"?>
<svg version="1.1" xmlns:xlink="http://www.w3.org/1999/xlink" width="42px" height="42px" xmlns="http://www.w3.org/2000/svg">
  <g transform="matrix(1 0 0 1 -14 -73 )">
    <path d="M 11.6721491612442 36.4766687274739  C 11.7016292225926 36.4439843615631  11.7291865535474 36.4090570152712  11.7532191658899 36.3709252823857  C 17.1499779472665 29.334502807246  24.9621724663214 24.448837166061  33.5825029811522 22.6178740618018  C 33.5841051334334 22.6175536477518  33.5857072857146 22.6172332337018  33.5869890239457 22.6169128196518  C 36.0642686107708 22.0910796487859  38.607557675486 21.8171081633942  41.1796858914185 21.8171081633942  C 41.6324599010758 21.8171081633942  41.9999983593751 21.4495697050949  41.9999983593751 20.9967956954377  C 41.9999983593751 20.5437011896992  41.6324599010758 20.1764832274811  41.1796858914185 20.1764832274811  C 38.8472427247171 20.1764832274811  36.5237718076652 20.3898926019573  34.2397142796987 20.8074188512727  L 34.2397142796987 19.036697443879  C 37.2046952224728 16.5267335731745  38.8321822799929 13.2377932719612  38.8321822799929 9.73544359627173  C 38.8321822799929 6.11421259710107  37.0925430862288 2.72113108511206  33.9333787604149 0.181046324959125  C 33.6331316002683 -0.0602408765530936  33.2053514451035 -0.0602408765530936  32.9051042849569 0.181046324959125  C 29.7462604552242 2.72113108511206  28.0063007653789 6.11421259710107  28.0063007653789 9.73544359627173  C 28.0063007653789 13.2377932719612  29.6341083189802 16.5267335731745  32.5987688477043 19.036697443879  L 32.5987688477043 21.1429138537924  C 31.0401751585869 21.4976348477486  29.5040119295308 21.9497680293059  27.999892074223 22.4941863635083  L 27.999892074223 17.6911927151878  C 27.999892074223 17.4656067864997  27.908888659809 17.2614899936918  27.7614887632231 17.1131288549559  L 23.1677389426665 12.4918216214132  C 23.0136099408746 12.3370517094902  22.804366195142 12.2498935097698  22.5858297857098 12.2498935097698  L 13.2070307341004 12.2498935097698  C 12.9888148207494 12.2498935097698  12.7792505789355 12.3370517094902  12.6254419911937 12.4918216214132  L 8.03169217063703 17.1128083588747  C 7.88429227405109 17.2614899936918  7.79296844558717 17.4656067864997  7.79296844558717 17.691513211269  L 7.79296844558717 20.8240814482781  C 7.22131319447996 20.7192993273711  6.64709446691038 20.627014174726  6.07031226287843 20.5481873145239  L 6.07031226287843 17.6239014990663  C 8.31239284326591 15.6952058751873  9.54254113115074 13.179794637508  9.54254113115074 10.5000004101562  C 9.54254113115074 7.70036369920454  8.20056120310308 5.07984984453711  5.76397682562591 3.12039250310966  C 5.46372966547931 2.87910530159744  5.03626992436446 2.87910530159744  4.73602276421786 3.12039250310966  C 2.29943838674069 5.07952943048713  0.957458458693031 7.70036369920454  0.957458458693031 10.5000004101562  C 0.957458458693031 13.1794741414268  2.18760674657786 15.6948854611373  4.42968732696534 17.6235810850164  L 4.42968732696534 20.3594512984589  C 3.23350514322246 20.2476196582961  2.02931203401125 20.1899414378929  0.820312467956547 20.1899414378929  C 0.367217962218051 20.1899414378929  0 20.557159400111  0 21.0102539058495  C 0 21.463348411588  0.367217962218051 21.830566373806  0.820312467956547 21.830566373806  C 7.37960790704657 21.830566373806  13.795348582213 23.5660399388266  19.4513389823696 26.8585050406834  C 18.0962211759289 27.7794339187721  16.8019860585162 28.7852780162001  15.5766443095061 29.868026407499  C 10.9941097189801 27.5333401783851  5.90240455459357 26.3012693241692  0.820312467956547 26.3012693241692  C 0.367538458299282 26.3012693241692  0 26.6684872863872  0 27.1215817921257  C 0 27.5746762978642  0.367538458299282 27.9418942600823  0.820312467956547 27.9418942600823  C 5.44450359201158 27.9418942600823  10.0779872977349 29.017272636044  14.2875360629869 31.0594020523671  C 13.0404047640467 32.2658382239907  11.874663801771 33.5565485407598  10.7989650117592 34.9209589288688  C 7.60807772624697 33.5828242155147  4.25440960334338 32.9047846912193  0.820312467956547 32.9047846912193  C 0.367538458299282 32.9047846912193  0 33.2720026534374  0 33.7250971591759  C 0 34.1781916649144  0.367538458299282 34.5454096271324  0.820312467956547 34.5454096271324  C 3.89648422279359 34.5454096271324  6.90408294124676 35.1286005223203  9.77709922745706 36.2770379774595  C 9.21025051522459 37.0646661615365  8.67160004407813 37.8737633994624  8.16499294667997 38.7043297732684  L 6.91497775722743 40.7522269706161  C 6.67881750863994 41.1386710883332  6.80122346870221 41.6436759514189  7.18766758641924 41.8795157859564  C 7.32128877651216 41.9612266187021  7.4686886730981 41.9999991796875  7.61448641740288 41.9999991796875  C 7.890700965207 41.9999991796875  8.16082731793644 41.8599692984387  8.3152768158095 41.6068259567646  L 9.56529200526203 39.5589287594168  C 10.2170558548025 38.4909203167609  10.9213710538527 37.4632866694029  11.6721491612442 36.4766687274739  Z M 32.5990893437856 16.7817994811797  C 30.6838519303183 14.7550509236308  29.647246115342 12.3046878396606  29.647246115342 9.73544359627173  C 29.647246115342 6.81980953438244  30.9812151999525 4.057984060235  33.4194018117421 1.89376909789964  C 35.8575883415005 4.057984060235  37.1915573440798 6.81980953438244  37.1915573440798 9.73544359627173  C 37.1915573440798 12.3046878396606  36.1546311970847 14.7550509236308  34.2397142796987 16.7817994811797  L 34.2397142796987 10.5000004101562  C 34.2397142796987 10.0469059044177  33.8724962354494 9.67968794219969  33.4194018117421 9.67968794219969  C 32.9663073060036 9.67968794219969  32.5990893437856 10.0469059044177  32.5990893437856 10.5000004101562  L 32.5990893437856 16.7817994811797  Z M 4.42968732696534 15.3023531483456  C 3.23863209614718 13.8873141411205  2.59808339460612 12.2293856980709  2.59808339460612 10.5000004101562  C 2.59808339460612 8.40756278876708  3.53471362755025 6.42022762030361  5.24999979492188 4.84112611948726  C 6.96528596229352 6.41990720625362  7.90191619523765 8.40756278876708  7.90191619523765 10.5000004101562  C 7.90191619523765 12.2293856980709  7.26136749369658 13.8873141411205  6.07031226287843 15.3023531483456  L 6.07031226287843 9.843750435791  C 6.07031226287843 9.3906559300525  5.70309430066038 9.02343796783445  5.24999979492188 9.02343796783445  C 4.79722578526462 9.02343796783445  4.42968732696534 9.3906559300525  4.42968732696534 9.843750435791  L 4.42968732696534 15.3023531483456  Z M 22.2448874162153 13.8905184456829  L 25.2076253786084 16.8708802472312  L 18.1420433382014 16.8708802472312  L 15.1793054578396 13.8905184456829  L 22.2448874162153 13.8905184456829  Z M 10.585555637283 16.8708802472312  L 13.2070307341004 14.2337038775897  L 15.828826326999 16.8708802472312  L 10.585555637283 16.8708802472312  Z M 9.43359338150026 21.1605376929478  L 9.43359338150026 18.5115051831443  L 16.9804680867005 18.5115051831443  L 16.9804680867005 23.7281797840555  C 16.6001122460894 23.5532225565147  16.2175134250971 23.3840331099987  15.8320306315613 23.2215727686886  L 15.8320306315613 20.4664764817783  C 15.8320306315613 20.0137023900898  15.4648126693433 19.6461640138217  15.0117181636048 19.6461640138217  L 11.402343304596 19.6461640138217  C 10.9495692949387 19.6461640138217  10.5820308366394 20.0137023900898  10.5820308366394 20.4664764817783  L 10.5820308366394 21.4418792757078  C 10.2007136718471 21.3425445217756  9.81811485085489 21.2483368027993  9.43359338150026 21.1605376929478  Z M 14.1914056956482 21.2867889497348  L 14.1914056956482 22.5742949619416  C 13.5409235023077 22.3346099127106  12.8846735279424 22.1122283706161  12.2226557725525 21.9081114957769  L 12.2226557725525 21.2867889497348  L 14.1914056956482 21.2867889497348  Z M 20.9887839496569 25.8661191536672  C 20.2133323197917 25.3925169182611  19.4237815693835 24.9471129239409  18.6210930226136 24.5308684128567  L 18.6210930226136 18.5115051831443  L 26.3595876343911 18.5115051831443  L 26.3595876343911 23.1308897683246  C 24.9544820369343 23.7131194213625  23.5814199772883 24.3777006532148  22.2503348652213 25.124954041994  C 21.8247977724688 25.3636777670438  21.4043876326411 25.6116941557932  20.9887839496569 25.8661191536672  Z " fill-rule="nonzero" fill="#ffffff" stroke="none" transform="matrix(1 0 0 1 14 73 )" />
  </g>
</svg>